<?xml version="1.0" encoding="utf-8"?>
<!-- Generator: Adobe Illustrator 21.0.0, SVG Export Plug-In . SVG Version: 6.00 Build 0)  -->
<svg version="1.1" id="Layer_1" xmlns="http://www.w3.org/2000/svg" xmlns:xlink="http://www.w3.org/1999/xlink" x="0px" y="0px"
	 viewBox="0 0 150 50" style="enable-background:new 0 0 150 50;" xml:space="preserve">
<style type="text/css">
	.st0{fill:#CECECE;}
	.st1{fill:#C1A57B;}
</style>
<path class="st0" d="M59.8,19.4c0.3,0,0.6,0.3,0.6,0.6v8.3h0.7c0.7,0,1.4,0,2.1-0.1c0.5,0,1-0.1,1.6-0.2c0.3,0,0.7,0.2,0.7,0.5
	l0,0.4c0,0.3-0.2,0.6-0.5,0.7c-0.6,0.1-1.2,0.1-1.8,0.2c-0.9,0-1.8,0.1-2.8,0.1h-1.1c-0.3,0-0.6-0.3-0.6-0.6V20
	c0-0.3,0.3-0.6,0.6-0.6H59.8z M71.6,34.4H71c-0.3,0-0.6-0.3-0.6-0.6v-8.4c0-0.3-0.3-0.6-0.6-0.6H69c-0.3,0-0.6,0.3-0.6,0.6V33
	c0,0.3-0.3,0.6-0.6,0.6h-0.6c-0.3,0-0.6-0.3-0.6-0.6V18.8c0-0.3,0.3-0.6,0.6-0.6h0.6c0.3,0,0.6,0.3,0.6,0.6v3.9
	c0,0.3,0.3,0.6,0.6,0.6h0.9c0.3,0,0.6-0.3,0.6-0.6v-4.2c0-0.3,0.3-0.6,0.6-0.6h0.6c0.3,0,0.6,0.3,0.6,0.6v15.4
	C72.2,34.2,71.9,34.4,71.6,34.4z"/>
<path class="st1" d="M84.3,22.8c-0.1,0.2-0.2,0.4-0.5,0.7c-0.3,0.3-0.6,0.6-0.9,0.9c-0.5,0.4-1,0.8-1.6,1.2
	c-0.4,0.3-0.8,0.6-1.3,0.9c-0.3,0.2-0.8,0.1-1-0.2l-0.3-0.4c-0.3-0.3-0.2-0.8,0.2-1.1c0.5-0.3,0.9-0.6,1.4-0.9
	c0.6-0.5,1.2-0.9,1.6-1.2c0.3-0.3,0.5-0.5,0.7-0.8c0.2-0.2,0.3-0.5,0.4-0.8c0.1-0.3,0.2-0.5,0.2-0.9c0-0.3,0-0.7,0-1.1V19h-3.6
	c-0.4,0-0.7-0.3-0.7-0.7v-0.4c0-0.4,0.3-0.7,0.7-0.7h9.1c0.4,0,0.7,0.3,0.7,0.7v0.4c0,0.4-0.3,0.7-0.7,0.7h-3.3v0.1
	c0,0.4,0,0.7,0,0.9c0,0.3,0,0.5,0.1,0.7c0.1,0.2,0.2,0.4,0.3,0.6c0.1,0.2,0.3,0.4,0.6,0.7c0.5,0.4,1.1,0.9,1.7,1.3
	c0.4,0.3,0.8,0.6,1.2,0.8c0.4,0.2,0.4,0.7,0.2,1.1l-0.3,0.4c-0.2,0.3-0.7,0.4-1,0.2c-0.4-0.2-0.7-0.5-1.1-0.8
	c-0.6-0.4-1.1-0.8-1.5-1.1c-0.3-0.2-0.6-0.5-0.8-0.7C84.5,23.1,84.4,22.9,84.3,22.8L84.3,22.8z M94.4,28.1v7.4
	c0,0.4-0.3,0.7-0.7,0.7H82.5c-0.4,0-0.7-0.3-0.7-0.7v-7.4c0-0.4,0.3-0.7,0.7-0.7h0.7c0.4,0,0.7,0.3,0.7,0.7v1.1
	c0,0.4,0.3,0.7,0.7,0.7h6.9c0.4,0,0.7-0.3,0.7-0.7v-1.1c0-0.4,0.3-0.7,0.7-0.7h0.7C94.1,27.4,94.4,27.7,94.4,28.1z M92.2,33.7v-1.2
	c0-0.4-0.3-0.7-0.7-0.7h-6.9c-0.4,0-0.7,0.3-0.7,0.7v1.2c0,0.4,0.3,0.7,0.7,0.7h6.9C91.9,34.4,92.2,34.1,92.2,33.7z M92.2,25.7v-8.9
	c0-0.4,0.3-0.7,0.7-0.7h0.7c0.4,0,0.7,0.3,0.7,0.7v8.9c0,0.4-0.3,0.7-0.7,0.7H93C92.6,26.4,92.2,26.1,92.2,25.7z"/>
<g>
	<path class="st0" d="M104.3,33.8v-5.5c0-0.3-0.3-0.6-0.6-0.6h-5.5c-0.3,0-0.6-0.3-0.6-0.6v-0.3c0-0.3,0.3-0.6,0.6-0.6h3.5
		c0.3,0,0.5-0.2,0.6-0.4c0.1-0.3,0.2-0.6,0.2-0.9c0.1-0.5,0.2-0.9,0.2-1.4c0.1-0.4,0.1-0.9,0.1-1.2s0-0.7,0-1v-0.7h-3.2
		c-0.3,0-0.6-0.3-0.6-0.6v-0.3c0-0.3,0.3-0.6,0.6-0.6h4.9v1.2c0,1-0.1,2-0.2,3.1c-0.1,0.8-0.2,1.5-0.3,2.2c-0.1,0.4,0.2,0.7,0.6,0.7
		h3.3c0.3,0,0.5-0.2,0.6-0.5c0.2-0.8,0.3-1.6,0.4-2.3c0.1-0.8,0.1-1.5,0.1-2.2v-0.7h-3c-0.3,0-0.6-0.3-0.6-0.6v-0.3
		c0-0.3,0.3-0.6,0.6-0.6h4.7v1.3c0,0.9,0,1.9-0.1,2.9c0,0.8-0.1,1.6-0.3,2.4c-0.1,0.4,0.2,0.7,0.6,0.7h1.3c0.3,0,0.6,0.3,0.6,0.6
		v0.3c0,0.3-0.3,0.6-0.6,0.6h-5.5c-0.3,0-0.6,0.3-0.6,0.6v5.5c0,0.3-0.3,0.6-0.6,0.6h-0.6C104.6,34.4,104.3,34.2,104.3,33.8z"/>
	<path class="st0" d="M115.2,29.5V20c0-0.3,0.3-0.6,0.6-0.6h6.6c0.3,0,0.6,0.3,0.6,0.6v9.5c0,0.3-0.3,0.6-0.6,0.6h-6.6
		C115.4,30.1,115.2,29.8,115.2,29.5z M117.5,28.6h3c0.3,0,0.6-0.3,0.6-0.6v-6.5c0-0.3-0.3-0.6-0.6-0.6h-3c-0.3,0-0.6,0.3-0.6,0.6
		v6.5C116.9,28.3,117.2,28.6,117.5,28.6z M125.9,33.8V18.4c0-0.3,0.3-0.6,0.6-0.6h0.6c0.3,0,0.6,0.3,0.6,0.6v15.4
		c0,0.3-0.3,0.6-0.6,0.6h-0.6C126.2,34.4,125.9,34.2,125.9,33.8z"/>
	<path class="st0" d="M131.4,29.9c-0.2-0.3-0.1-0.7,0.2-0.9c0.7-0.4,1.4-0.8,1.9-1.2c0.7-0.4,1.2-0.8,1.7-1.2c0.4-0.4,0.8-0.7,1-1
		s0.4-0.6,0.6-1s0.2-0.7,0.2-1c0-0.3,0-0.7,0-1.2v-1c0-0.3-0.3-0.6-0.6-0.6H132c-0.3,0-0.6-0.3-0.6-0.6V20c0-0.3,0.3-0.6,0.6-0.6
		h6.2c0.3,0,0.6,0.3,0.6,0.6v2.6c0,0.5,0,1,0,1.5c0,0.4-0.1,0.9-0.3,1.2c-0.1,0.4-0.4,0.8-0.6,1.2s-0.7,0.8-1.2,1.2
		c-0.5,0.4-1.1,0.9-1.9,1.4c-0.6,0.4-1.4,0.9-2.3,1.5c-0.3,0.2-0.6,0.1-0.8-0.2L131.4,29.9z M142.3,33.8V18.4c0-0.3,0.3-0.6,0.6-0.6
		h0.6c0.3,0,0.6,0.3,0.6,0.6v15.4c0,0.3-0.3,0.6-0.6,0.6h-0.6C142.6,34.4,142.3,34.2,142.3,33.8z"/>
</g>
<g>
	<path class="st1" d="M28.2,8.3l20.4,9.8V8.2c0-1.8-1.4-3.2-3.2-3.2H9.3C7.5,5,6.1,6.4,6.1,8.2v9.9l20.4-9.8C27,8,27.6,8,28.2,8.3z"
		/>
	<rect x="24.6" y="38.9" class="st1" width="5.4" height="2.4"/>
	<rect x="35.6" y="41.8" class="st1" width="5.5" height="3.8"/>
	<rect x="13.6" y="41.8" class="st1" width="5.5" height="3.8"/>
	<path class="st1" d="M27.7,17c2.6,0.2,4.6,2.3,4.6,5h-10c0-2.6,2-4.8,4.6-5v-4.7L6.1,22.4v20c0,1.8,1.4,3.2,3.2,3.2h2.8V32
		c0-0.4,0.3-0.8,0.8-0.8s0.8,0.3,0.8,0.8v8.3h6.3c0.4,0,0.8,0.3,0.8,0.8v4.5h2.5V42v-3.1h-4.4c-0.5,0-0.9-0.4-0.9-0.9
		s0.4-0.9,0.9-0.9H36c0.5,0,0.9,0.4,0.9,0.9s-0.4,0.9-0.9,0.9h-4.5V42v3.5h2.6V41c0-0.4,0.3-0.8,0.8-0.8h6.3V32
		c0-0.4,0.3-0.8,0.8-0.8s0.8,0.3,0.8,0.8v13.5h2.8c1.8,0,3.2-1.4,3.2-3.2v-20L27.7,12.3V17z"/>
	<rect x="24.6" y="42.8" class="st1" width="5.4" height="2.8"/>
</g>
</svg>
